<svg xmlns="http://www.w3.org/2000/svg" width="150.662" height="143.83" viewBox="0 0 150.662 143.83">
  <path id="thumb_up_FILL0_wght400_GRAD0_opsz48" d="M118.475,145.83H38.649V53.779L88.63,2l7.012,5.573A5.4,5.4,0,0,1,97.26,10.09a12.614,12.614,0,0,1,.539,3.955v1.8l-8.09,37.935h53.756a11.06,11.06,0,0,1,10.787,10.787V79.309a13.286,13.286,0,0,0,.27,2.607,4.321,4.321,0,0,1-.27,2.607L131.6,136.661a15.609,15.609,0,0,1-5.3,6.472A13.02,13.02,0,0,1,118.475,145.83ZM49.436,135.043h71.376l22.653-53.756V64.566H76.4L85.933,19.8l-36.5,38.475Zm0-76.769v0ZM38.649,53.779V64.566H14.737v70.477H38.649V145.83H3.95V53.779Z" transform="translate(-3.95 -2)" fill="#fff"/>
</svg>
